<svg width="28" height="28" viewBox="0 0 28 28" fill="none" xmlns="http://www.w3.org/2000/svg">
<g clip-path="url(#clip0_11179_6146)">
<path d="M12.9241 2.75136C12.8027 1.29995 11.7029 0.154249 10.3106 0.0574526C9.47278 3.07234e-05 8.3227 -0.027313 6.74715 0.0394057C5.1716 0.106124 4.0177 0.231359 3.17168 0.359328C1.77114 0.575343 0.57512 1.77191 0.359104 3.17191C0.231135 4.01792 0.109182 5.17237 0.0391823 6.74737C-0.0308177 8.32237 -0.00128649 9.47245 0.0572291 10.3108C0.154573 11.7032 1.29973 12.8029 2.75114 12.9243C3.62614 12.9954 4.82051 13.0457 6.4584 13.0408C8.09629 13.0359 9.29395 12.979 10.1668 12.9003C10.8709 12.8376 11.5306 12.5294 12.0304 12.0296C12.5303 11.5297 12.8385 10.87 12.9011 10.1659C12.9799 9.29362 13.0373 8.09597 13.0417 6.45753C13.0461 4.81909 12.9952 3.62362 12.9241 2.75136Z" fill="white"/>
<path d="M27.6407 3.17193C27.4247 1.77193 26.2281 0.575364 24.8281 0.359348C23.9821 0.23138 22.8277 0.109426 21.2527 0.0394264C19.6777 -0.0305736 18.5276 -0.00104235 17.6892 0.0574733C16.2969 0.15427 15.1971 1.29997 15.0757 2.75138C15.0046 3.62638 14.9543 4.82075 14.9592 6.45864C14.9641 8.09654 15.021 9.29419 15.0998 10.167C15.1623 10.8712 15.4705 11.5309 15.9704 12.0308C16.4702 12.5307 17.13 12.8388 17.8341 12.9014C18.7091 12.9801 19.9041 13.0376 21.5425 13.0419C23.1809 13.0463 24.3775 12.9965 25.2498 12.9254C26.7006 12.804 27.8463 11.7037 27.9437 10.3119C28.0022 9.47357 28.0284 8.32404 27.9617 6.74849C27.895 5.17294 27.7687 4.01794 27.6407 3.17193Z" fill="white"/>
<path d="M12.9002 17.8331C12.8377 17.1289 12.5295 16.4692 12.0296 15.9693C11.5298 15.4694 10.87 15.1612 10.1659 15.0987C9.29086 15.02 8.09594 14.9625 6.4575 14.9582C4.81906 14.9538 3.6225 15.0035 2.75023 15.0746C1.30047 15.1971 0.154219 16.2969 0.0574221 17.6892C2.05822e-07 18.5276 -0.0273435 19.6771 0.0393752 21.2527C0.106094 22.8282 0.231328 23.9821 0.359297 24.8282C0.575313 26.2282 1.77188 27.4247 3.17188 27.6407C4.01625 27.7687 5.1707 27.8923 6.7457 27.9607C8.3207 28.029 9.47078 28.0011 10.3091 27.9426C11.7004 27.8458 12.8013 26.6996 12.9227 25.2487C12.9938 24.3764 13.0441 23.1793 13.0391 21.5414C13.0342 19.9035 12.979 18.7032 12.9002 17.8331Z" fill="white"/>
<path d="M27.9453 17.6892C27.8485 16.2979 26.7023 15.1971 25.2514 15.0757C24.3791 15.0046 23.182 14.9543 21.5441 14.9592C19.9063 14.9641 18.708 15.021 17.8358 15.0997C17.1316 15.1623 16.4719 15.4705 15.972 15.9703C15.4721 16.4702 15.164 17.13 15.1014 17.8341C15.0227 18.7091 14.9652 19.904 14.9609 21.5425C14.9565 23.1809 15.0063 24.3775 15.0773 25.2497C15.1988 26.7006 16.2996 27.8469 17.6909 27.9436C18.5292 28.0022 19.6788 28.0284 21.2543 27.9617C22.8298 27.895 23.9838 27.7697 24.8281 27.6418C26.2303 27.4258 27.4263 26.2292 27.6423 24.8276C27.7703 23.9832 27.8939 22.8287 27.9623 21.2537C28.0306 19.6787 28 18.5276 27.9453 17.6892Z" fill="white"/>
</g>
<defs>
<clipPath id="clip0_11179_6146">
<rect width="28" height="28" fill="white"/>
</clipPath>
</defs>
</svg>
