<svg width="27" height="27" viewBox="0 0 27 27" fill="none" xmlns="http://www.w3.org/2000/svg">
<g clip-path="url(#clip0_11179_6138)">
<path d="M9.92648 11.9117C7.29922 11.9117 5.16177 14.0492 5.16177 16.6764C5.40133 22.9888 14.4526 22.9871 14.6912 16.6764C14.6912 14.0492 12.5537 11.9117 9.92648 11.9117V11.9117ZM9.13236 19.3877L6.98263 17.238L8.10567 16.115L9.13242 17.1417L11.7474 14.5267L12.8704 15.6498L9.13236 19.3877Z" fill="white"/>
<path d="M15.4853 4.76473H4.36765V1.58826H0.397064V27H19.4559V1.58826H15.4853V4.76473ZM5.16177 7.14708H14.6912V8.73532H5.16177V7.14708ZM16.2794 21.4412V23.0294C13.1125 23.0294 6.73963 23.0294 3.57354 23.0294V21.4412H5.72935C1.37701 17.6464 4.08188 10.3211 9.92658 10.3236C15.7711 10.3211 18.4761 17.6475 14.1236 21.4412H16.2794Z" fill="white"/>
<path d="M5.95589 0H13.8971V3.17647H5.95589V0Z" fill="white"/>
<path d="M24.2206 26.2059L26.6029 21.4412H21.8382L24.2206 26.2059Z" fill="white"/>
<path d="M21.8382 0H26.6029V3.17647H21.8382V0Z" fill="white"/>
<path d="M21.8382 9.52942H24.2206V11.1177H21.8382V12.7059H24.2206V14.2941H21.8382V15.8824H24.2206V17.4706H21.8382V19.8529H26.6029V4.76471H21.8382V9.52942Z" fill="white"/>
</g>
<defs>
<clipPath id="clip0_11179_6138">
<rect width="27" height="27" fill="white"/>
</clipPath>
</defs>
</svg>
