<svg width="31" height="31" viewBox="0 0 31 31" fill="none" xmlns="http://www.w3.org/2000/svg">
<path d="M28.2796 12.871L16.1891 0.778732C15.476 0.0674257 14.3226 0.0758418 13.6188 0.777824C12.9111 1.48737 12.9111 2.63946 13.6188 3.3481L25.7111 15.4395C26.4195 16.1479 27.5712 16.1479 28.2796 15.4395C28.99 14.7292 28.99 13.5812 28.2796 12.871Z" fill="white"/>
<path d="M12.7218 5.01965L12.6308 5.47581C11.9898 8.68226 10.4319 11.7284 8.32484 14.1974L14.9031 20.7756C17.3717 18.6689 20.3759 17.0692 23.5825 16.4274L24.0395 16.3364L12.7218 5.01965Z" fill="white"/>
<path d="M7.11881 15.5599L2.62301 20.0548C1.56071 21.1171 1.55629 22.8417 2.62301 23.9085L5.19154 26.477C6.25383 27.5393 7.97845 27.5436 9.04517 26.477L13.5405 21.9816L7.11881 15.5599ZM7.76097 22.6243C7.40622 22.979 6.83145 22.979 6.47671 22.6243C6.12196 22.2695 6.12196 21.6947 6.47671 21.34L7.76097 20.0557C8.11571 19.701 8.69049 19.701 9.04523 20.0557C9.39998 20.4105 9.39998 20.9852 9.04523 21.34L7.76097 22.6243Z" fill="white"/>
<path d="M17.3326 26.9603L18.568 25.7248C19.6348 24.6582 19.6313 22.9336 18.5681 21.8722L17.6504 20.9539C17.1432 21.2946 16.6588 21.6647 16.1879 22.0597L17.2838 23.1573C17.6377 23.5094 17.6402 24.0824 17.2838 24.4406L16.0279 25.6965L14.1824 23.9084L11.6137 26.477L15.7344 30.4699C16.4375 31.1749 17.5921 31.1789 18.302 30.469C19.0106 29.7604 19.0106 28.6083 18.302 27.8996L17.3326 26.9603Z" fill="white"/>
<path d="M21.0016 0C20.4996 0 20.0934 0.40621 20.0934 0.908205V2.72461C20.0934 3.22661 20.4996 3.63282 21.0016 3.63282C21.5036 3.63282 21.9098 3.22661 21.9098 2.72461V0.908205C21.9098 0.40621 21.5036 0 21.0016 0Z" fill="white"/>
<path d="M28.2672 7.26562H26.4508C25.9488 7.26562 25.5426 7.67183 25.5426 8.17383C25.5426 8.67583 25.9488 9.08203 26.4508 9.08203H28.2672C28.7692 9.08203 29.1754 8.67583 29.1754 8.17383C29.1754 7.67183 28.7692 7.26562 28.2672 7.26562Z" fill="white"/>
<path d="M27.0929 2.08246C26.7382 1.72772 26.1634 1.72772 25.8086 2.08246L23.9922 3.89887C23.6375 4.25362 23.6375 4.82839 23.9922 5.18314C24.347 5.53788 24.9217 5.53794 25.2765 5.18314L27.0929 3.36673C27.4476 3.01198 27.4476 2.43721 27.0929 2.08246Z" fill="white"/>
</svg>
