<svg width="28" height="27" viewBox="0 0 28 27" fill="none" xmlns="http://www.w3.org/2000/svg">
<path d="M11.75 3.375H5C4.70163 3.375 4.41548 3.49353 4.2045 3.7045C3.99353 3.91548 3.875 4.20163 3.875 4.5V11.25C3.875 11.5483 3.99353 11.8345 4.2045 12.0455C4.41548 12.2564 4.70163 12.375 5 12.375H11.75C12.0483 12.375 12.3345 12.2564 12.5455 12.0455C12.7564 11.8345 12.875 11.5483 12.875 11.25V4.5C12.875 4.20163 12.7564 3.91548 12.5455 3.7045C12.3345 3.49353 12.0483 3.375 11.75 3.375ZM23 3.375H16.25C15.9517 3.375 15.6655 3.49353 15.4545 3.7045C15.2436 3.91548 15.125 4.20163 15.125 4.5V11.25C15.125 11.5483 15.2436 11.8345 15.4545 12.0455C15.6655 12.2564 15.9517 12.375 16.25 12.375H23C23.2983 12.375 23.5845 12.2564 23.7955 12.0455C24.0064 11.8345 24.125 11.5483 24.125 11.25V4.5C24.125 4.20163 24.0064 3.91548 23.7955 3.7045C23.5845 3.49353 23.2983 3.375 23 3.375ZM11.75 14.625H5C4.70163 14.625 4.41548 14.7436 4.2045 14.9545C3.99353 15.1655 3.875 15.4517 3.875 15.75V22.5C3.875 22.7983 3.99353 23.0845 4.2045 23.2955C4.41548 23.5064 4.70163 23.625 5 23.625H11.75C12.0483 23.625 12.3345 23.5064 12.5455 23.2955C12.7564 23.0845 12.875 22.7983 12.875 22.5V15.75C12.875 15.4517 12.7564 15.1655 12.5455 14.9545C12.3345 14.7436 12.0483 14.625 11.75 14.625ZM20.75 15.75H18.5V18H16.25V20.25H18.5V22.5H20.75V20.25H23V18H20.75V15.75Z" fill="#FF6363"/>
</svg>
