<svg width="28" height="27" viewBox="0 0 28 27" fill="none" xmlns="http://www.w3.org/2000/svg">
<g clip-path="url(#clip0_12471_7624)">
<path d="M23.6037 14.4136H21.5156C21.7285 14.9963 21.8447 15.6251 21.8447 16.2806V24.1723C21.8447 24.4456 21.7972 24.7079 21.7106 24.9518H25.1627C26.4522 24.9518 27.5013 23.9027 27.5013 22.6133V18.3111C27.5013 16.162 25.7528 14.4136 23.6037 14.4136Z" fill="#FF6363"/>
<path d="M6.15656 16.2806C6.15656 15.6251 6.27284 14.9963 6.48568 14.4136H4.39761C2.24846 14.4136 0.5 16.162 0.5 18.3112V22.6133C0.5 23.9028 1.54905 24.9519 2.83856 24.9519H6.29067C6.20413 24.7078 6.15656 24.4456 6.15656 24.1723V16.2806V16.2806Z" fill="#FF6363"/>
<path d="M16.39 12.3828H11.6164C9.46721 12.3828 7.71875 14.1313 7.71875 16.2804V24.1721C7.71875 24.6026 8.06775 24.9517 8.49827 24.9517H19.5081C19.9386 24.9517 20.2876 24.6027 20.2876 24.1721V16.2804C20.2876 14.1313 18.5391 12.3828 16.39 12.3828Z" fill="#FF6363"/>
<path d="M13.9999 2.04834C11.4152 2.04834 9.3125 4.15107 9.3125 6.73575C9.3125 8.48891 10.2801 10.0201 11.7091 10.8239C12.3869 11.2052 13.1683 11.4231 13.9999 11.4231C14.8314 11.4231 15.6128 11.2052 16.2906 10.8239C17.7196 10.0201 18.6872 8.48885 18.6872 6.73575C18.6872 4.15113 16.5845 2.04834 13.9999 2.04834Z" fill="#FF6363"/>
<path d="M5.77115 6.41699C3.83817 6.41699 2.26562 7.98953 2.26562 9.92252C2.26562 11.8555 3.83817 13.428 5.77115 13.428C6.26147 13.428 6.72839 13.3265 7.15253 13.1439C7.88585 12.8282 8.49051 12.2693 8.86466 11.5693C9.12728 11.0779 9.27667 10.5174 9.27667 9.92252C9.27667 7.98959 7.70413 6.41699 5.77115 6.41699Z" fill="#FF6363"/>
<path d="M22.2321 6.41699C20.2991 6.41699 18.7266 7.98953 18.7266 9.92252C18.7266 10.5175 18.876 11.078 19.1386 11.5693C19.5127 12.2694 20.1174 12.8282 20.8507 13.1439C21.2749 13.3265 21.7418 13.428 22.2321 13.428C24.1651 13.428 25.7376 11.8555 25.7376 9.92252C25.7376 7.98953 24.1651 6.41699 22.2321 6.41699Z" fill="#FF6363"/>
</g>
<defs>
<clipPath id="clip0_12471_7624">
<rect width="27" height="27" fill="white" transform="translate(0.5)"/>
</clipPath>
</defs>
</svg>
