<svg width="42" height="42" viewBox="0 0 42 42" fill="none" xmlns="http://www.w3.org/2000/svg">
<path d="M19.6875 3.9375C19.6875 3.21263 19.0999 2.625 18.375 2.625C17.6501 2.625 17.0625 3.21263 17.0625 3.9375V9.1875C17.0625 9.91237 17.6501 10.5 18.375 10.5C19.0999 10.5 19.6875 9.91237 19.6875 9.1875V3.9375Z" fill="#E56033"/>
<path fill-rule="evenodd" clip-rule="evenodd" d="M11.8125 14.4375C11.8125 13.7126 12.4001 13.125 13.125 13.125H36.75C37.4749 13.125 38.0625 13.7126 38.0625 14.4375V30.1875C38.0625 35.2616 33.9491 39.375 28.875 39.375H21C16.8381 39.375 13.3224 36.6076 12.193 32.8125H10.5C6.87564 32.8125 3.9375 29.8743 3.9375 26.25V24.9375C3.9375 21.3132 6.87564 18.375 10.5 18.375H11.8125V14.4375ZM21 36.75C17.3757 36.75 14.4375 33.8118 14.4375 30.1875V15.75H35.4375V30.1875C35.4375 33.8118 32.4993 36.75 28.875 36.75H21ZM10.5 21H11.8125V30.1875H10.5C8.32538 30.1875 6.5625 28.4247 6.5625 26.25V24.9375C6.5625 22.7628 8.32538 21 10.5 21Z" fill="#E56033"/>
<path d="M24.9375 2.625C25.6624 2.625 26.25 3.21263 26.25 3.9375V9.1875C26.25 9.91237 25.6624 10.5 24.9375 10.5C24.2126 10.5 23.625 9.91237 23.625 9.1875V3.9375C23.625 3.21263 24.2126 2.625 24.9375 2.625Z" fill="#E56033"/>
<path d="M32.8125 3.9375C32.8125 3.21263 32.2249 2.625 31.5 2.625C30.7751 2.625 30.1875 3.21263 30.1875 3.9375V9.1875C30.1875 9.91237 30.7751 10.5 31.5 10.5C32.2249 10.5 32.8125 9.91237 32.8125 9.1875V3.9375Z" fill="#E56033"/>
</svg>
