<svg width="49" height="37" viewBox="0 0 49 37" fill="none" xmlns="http://www.w3.org/2000/svg">
<path d="M43.1725 15.2865L43.175 15.289C44.357 16.4736 44.3565 18.3999 43.1732 19.5837C42.5989 20.158 41.8361 20.4739 41.0249 20.4739H40.5274V30.3801C40.5274 32.3406 38.9324 33.9356 36.9716 33.9356H31.7051C31.1711 33.9356 30.7383 33.5026 30.7383 32.9688V25.2022C30.7383 24.7259 30.532 24.297 30.2042 24C30.7383 23.9366 31.9999 23.5 32.1189 23.2996C32.469 23.8501 32.6719 24.5029 32.6719 25.2022V32.002H36.9716C37.8662 32.002 38.5938 31.2744 38.5938 30.3801V19.5071C38.5938 18.9731 39.0266 18.5403 39.5606 18.5403H41.0249C41.3197 18.5403 41.5971 18.4253 41.8059 18.2166C42.2354 17.7868 42.2361 17.0876 41.8079 16.6563L41.8016 16.6503L28.3437 3.19267C28.135 2.98395 27.8578 2.86914 27.563 2.86914C27.2679 2.86914 26.9907 2.98395 26.7822 3.19267L22.288 7.6867L20.9307 6.3094L25.4146 1.82556C25.9886 1.25152 26.7515 0.935547 27.563 0.935547C28.3744 0.935547 29.1373 1.25152 29.7111 1.82556L43.1725 15.2865Z" fill="#E56033"/>
<path d="M1 19.5L16 5H16.5L19.5 7L27.5 15L32 19.5V21L29.5 22.5L28.5 23.5V34.5L27 36H20.5L21 35.5L20 36L16.5 35.5L13.5 36L12.5 34.5V36H6.5L4.5 34.5V22.5L1 21.5V19.5Z" fill="white"/>
<path d="M32.175 18.289C32.174 18.2882 32.1733 18.2872 32.1725 18.2865L18.7111 4.82556C18.1373 4.25152 17.3745 3.93555 16.563 3.93555C15.7516 3.93555 14.9887 4.25152 14.4147 4.82556L0.960287 18.2797C0.955755 18.2842 0.950971 18.289 0.946691 18.2935C-0.231595 19.4786 -0.229581 21.4014 0.952482 22.5834C1.49253 23.1237 2.20554 23.4364 2.96816 23.4694C2.99938 23.4724 3.0306 23.4739 3.06207 23.4739H3.59834V33.3801C3.59834 35.3406 5.19356 36.9356 7.15409 36.9356H12.4206C12.9546 36.9356 13.3874 36.5026 13.3874 35.9688V28.2022C13.3874 27.3077 14.1153 26.58 15.0098 26.58H18.1162C19.0107 26.58 19.7383 27.3077 19.7383 28.2022V35.9688C19.7383 36.5026 20.1711 36.9356 20.7051 36.9356H25.9717C27.9325 36.9356 29.5274 35.3406 29.5274 33.3801V23.4739H30.0249C30.8361 23.4739 31.599 23.158 32.1733 22.5837C33.3566 21.3999 33.3571 19.4736 32.175 18.289V18.289ZM30.8059 21.2166C30.5972 21.4253 30.3197 21.5403 30.0249 21.5403H28.5606C28.0266 21.5403 27.5938 21.9731 27.5938 22.5071V33.3801C27.5938 34.2744 26.8662 35.002 25.9717 35.002H21.6719V28.2022C21.6719 26.2417 20.077 24.6464 18.1162 24.6464H15.0098C13.049 24.6464 11.4538 26.2417 11.4538 28.2022V35.002H7.15409C6.2598 35.002 5.53194 34.2744 5.53194 33.3801V22.5071C5.53194 21.9731 5.09914 21.5403 4.56514 21.5403H3.12602C3.11091 21.5393 3.09606 21.5386 3.0807 21.5383C2.79267 21.5333 2.52252 21.419 2.3201 21.2163C1.88957 20.7858 1.88957 20.0851 2.3201 19.6543C2.32035 19.6543 2.32035 19.6541 2.3206 19.6538L2.32136 19.6531L15.7823 6.19267C15.9907 5.98395 16.2679 5.86914 16.563 5.86914C16.8578 5.86914 17.135 5.98395 17.3437 6.19267L30.8016 19.6503C30.8037 19.6523 30.8059 19.6543 30.8079 19.6563C31.2362 20.0876 31.2354 20.7868 30.8059 21.2166V21.2166Z" fill="#E56033"/>
</svg>
