<svg width="26" height="26" viewBox="0 0 26 26" fill="none" xmlns="http://www.w3.org/2000/svg">
<g clip-path="url(#clip0_9860_4448)">
<path d="M16.25 7.04169C15.652 7.04169 15.1667 6.55635 15.1667 5.95835V4.33335H10.8333V5.95835C10.8333 6.55635 10.348 7.04169 9.75001 7.04169C9.15201 7.04169 8.66667 6.55635 8.66667 5.95835V4.33335C8.66667 3.13844 9.63842 2.16669 10.8333 2.16669H15.1667C16.3616 2.16669 17.3333 3.13844 17.3333 4.33335V5.95835C17.3333 6.55635 16.848 7.04169 16.25 7.04169Z" fill="white"/>
<path d="M13.7692 16.6617C13.5742 16.7375 13.2925 16.7917 13 16.7917C12.7075 16.7917 12.4258 16.7375 12.1658 16.64L0 12.5883V20.8542C0 22.5008 1.3325 23.8333 2.97917 23.8333H23.0208C24.6675 23.8333 26 22.5008 26 20.8542V12.5883L13.7692 16.6617Z" fill="white"/>
<path d="M26 8.39585V10.8767L13.26 15.1234C13.1733 15.1559 13.0867 15.1667 13 15.1667C12.9133 15.1667 12.8267 15.1559 12.74 15.1234L0 10.8767V8.39585C0 6.74919 1.3325 5.41669 2.97917 5.41669H23.0208C24.6675 5.41669 26 6.74919 26 8.39585V8.39585Z" fill="white"/>
</g>
<defs>
<clipPath id="clip0_9860_4448">
<rect width="26" height="26" fill="white"/>
</clipPath>
</defs>
</svg>
