<svg width="28" height="27" viewBox="0 0 28 27" fill="none" xmlns="http://www.w3.org/2000/svg">
<g clip-path="url(#clip0_12471_7586)">
<path d="M23.4358 11.9743C23.0812 9.70481 21.1137 7.96289 18.7461 7.96289C17.8554 7.96289 16.9995 8.20932 16.2572 8.66895C15.1278 6.77094 13.0947 5.58984 10.8359 5.58984C7.34666 5.58984 4.50781 8.42869 4.50781 11.918C4.50781 11.9396 4.50781 11.962 4.5086 11.9836C2.26607 12.3614 0.5 14.3165 0.5 16.6641C0.5 19.2812 2.68167 21.4102 5.29883 21.4102H22.7012C25.3183 21.4102 27.5 19.2812 27.5 16.6641C27.5 14.2964 25.7053 12.3289 23.4358 11.9743V11.9743Z" fill="#FF6363"/>
</g>
<defs>
<clipPath id="clip0_12471_7586">
<rect width="27" height="27" fill="white" transform="translate(0.5)"/>
</clipPath>
</defs>
</svg>
