<svg width="28" height="27" viewBox="0 0 28 27" fill="none" xmlns="http://www.w3.org/2000/svg">
<g clip-path="url(#clip0_12471_7575)">
<path d="M7.67188 20.6719C9.41934 20.6719 10.8359 19.2553 10.8359 17.5078C10.8359 15.7603 9.41934 14.3438 7.67188 14.3438C5.92441 14.3438 4.50781 15.7603 4.50781 17.5078C4.50781 19.2553 5.92441 20.6719 7.67188 20.6719Z" fill="#FF6363"/>
<path d="M2.13281 26.209C2.13281 26.6462 2.48661 27 2.92383 27H12.416C12.8532 27 13.207 26.6462 13.207 26.209C13.207 23.1561 10.7228 20.6719 7.66992 20.6719C4.61708 20.6719 2.13281 23.1561 2.13281 26.209Z" fill="#FF6363"/>
<path d="M20.3281 20.6719C22.0756 20.6719 23.4922 19.2553 23.4922 17.5078C23.4922 15.7603 22.0756 14.3438 20.3281 14.3438C18.5807 14.3438 17.1641 15.7603 17.1641 17.5078C17.1641 19.2553 18.5807 20.6719 20.3281 20.6719Z" fill="#FF6363"/>
<path d="M14.7891 26.209C14.7891 26.6462 15.1429 27 15.5801 27H25.0723C25.5095 27 25.8633 26.6462 25.8633 26.209C25.8633 23.1561 23.379 20.6719 20.3262 20.6719C17.2733 20.6719 14.7891 23.1561 14.7891 26.209Z" fill="#FF6363"/>
<path d="M25.127 0H2.87305C1.5645 0 0.5 1.0645 0.5 2.37305V8.70117C0.5 10.0097 1.5645 11.0742 2.87305 11.0742H5.70958L7.05984 12.4245C7.36881 12.7335 7.86942 12.7335 8.17839 12.4245L9.52871 11.0742H18.4713L19.8216 12.4245C20.1305 12.7335 20.6311 12.7335 20.9401 12.4245L22.2904 11.0742H25.127C26.4355 11.0742 27.5 10.0097 27.5 8.70117V2.37305C27.5 1.0645 26.4355 0 25.127 0ZM10.7832 7.91016H4.45508C4.01786 7.91016 3.66406 7.55636 3.66406 7.11914C3.66406 6.68192 4.01786 6.32812 4.45508 6.32812H10.7832C11.2204 6.32812 11.5742 6.68192 11.5742 7.11914C11.5742 7.55636 11.2204 7.91016 10.7832 7.91016ZM10.7832 4.74609H4.45508C4.01786 4.74609 3.66406 4.3923 3.66406 3.95508C3.66406 3.51786 4.01786 3.16406 4.45508 3.16406H10.7832C11.2204 3.16406 11.5742 3.51786 11.5742 3.95508C11.5742 4.3923 11.2204 4.74609 10.7832 4.74609ZM23.5449 7.91016H17.2168C16.7796 7.91016 16.4258 7.55636 16.4258 7.11914C16.4258 6.68192 16.7796 6.32812 17.2168 6.32812H23.5449C23.9821 6.32812 24.3359 6.68192 24.3359 7.11914C24.3359 7.55636 23.9821 7.91016 23.5449 7.91016ZM23.5449 4.74609H17.2168C16.7796 4.74609 16.4258 4.3923 16.4258 3.95508C16.4258 3.51786 16.7796 3.16406 17.2168 3.16406H23.5449C23.9821 3.16406 24.3359 3.51786 24.3359 3.95508C24.3359 4.3923 23.9821 4.74609 23.5449 4.74609Z" fill="#FF6363"/>
</g>
<defs>
<clipPath id="clip0_12471_7575">
<rect width="27" height="27" fill="white" transform="translate(0.5)"/>
</clipPath>
</defs>
</svg>
