<svg width="28" height="27" viewBox="0 0 28 27" fill="none" xmlns="http://www.w3.org/2000/svg">
<g clip-path="url(#clip0_12471_7582)">
<path d="M14.002 14.291C14.4388 14.291 14.793 13.9369 14.793 13.5C14.793 13.0631 14.4388 12.709 14.002 12.709C13.5651 12.709 13.2109 13.0631 13.2109 13.5C13.2109 13.9369 13.5651 14.291 14.002 14.291Z" fill="#FF6363"/>
<path d="M24.7799 16.9821C23.8866 16.4663 22.7945 16.5992 22.0509 17.2331C22.0509 17.2331 22.0508 17.2332 22.0507 17.2332L20.5633 16.3744L21.3543 15.0045L19.5186 13.9446C19.5328 13.7916 19.5397 13.644 19.5397 13.5C19.5397 13.356 19.5328 13.2084 19.5186 13.0554L21.3543 11.9955L20.5633 10.6256L22.0511 9.76656C22.8046 10.4087 23.896 10.5278 24.7799 10.0179C25.9126 9.36352 26.3024 7.90963 25.6484 6.77637C24.994 5.64311 23.5396 5.2534 22.4063 5.90783C21.5109 6.42516 21.0801 7.43555 21.2594 8.39689L19.7723 9.25546L18.9812 7.88537L17.1276 8.95588C16.8882 8.78977 16.6367 8.64422 16.3756 8.51924V6.38086H14.7936V4.61004C15.7143 4.28414 16.3756 3.404 16.3756 2.37305C16.3756 1.06471 15.3109 0 14.0026 0C12.6942 0 11.6295 1.06471 11.6295 2.37305C11.6295 3.404 12.2908 4.28414 13.2116 4.61004V6.38086H11.6295V8.51924C11.3685 8.64422 11.117 8.78977 10.8775 8.95588L9.02393 7.88537L8.23287 9.25546L6.74581 8.39689C6.92236 7.46102 6.51309 6.43597 5.59831 5.90783C4.46557 5.2534 3.01116 5.64311 2.35673 6.77637C1.69792 7.91796 2.10054 9.36826 3.22526 10.0179C4.10566 10.526 5.19885 10.411 5.95374 9.76641L7.44185 10.6256L6.65089 11.9955L8.48657 13.0554C8.47233 13.2084 8.46548 13.356 8.46548 13.5C8.46548 13.644 8.47233 13.7916 8.48657 13.9446L6.65089 15.0045L7.44185 16.3744L5.95437 17.2332C5.21082 16.5991 4.11842 16.4664 3.22526 16.9821C2.09253 17.6365 1.70282 19.0904 2.35673 20.2236C2.796 20.9841 3.59546 21.4096 4.416 21.4096C5.91202 21.4096 7.01676 20.0393 6.74581 18.6031L8.23287 17.7445L9.02393 19.1146L10.8775 18.0441C11.1175 18.2102 11.3685 18.3558 11.6295 18.4808V20.6191H13.2116V22.39C12.2908 22.7159 11.6295 23.596 11.6295 24.627C11.6295 25.9353 12.6942 27 14.0026 27C15.3109 27 16.3756 25.9353 16.3756 24.627C16.3756 23.596 15.7143 22.7159 14.7936 22.39V20.6191H16.3756V18.4808C16.6367 18.3558 16.8877 18.2102 17.1276 18.0441L18.9812 19.1146L19.7723 17.7445L21.2594 18.6031C21.0801 19.5645 21.5114 20.5754 22.4063 21.0922H22.4069C23.5449 21.7492 24.9972 21.3516 25.6484 20.2236C26.3024 19.0904 25.9126 17.6365 24.7799 16.9821V16.9821ZM14.0026 15.873C12.6942 15.873 11.6295 14.8083 11.6295 13.5C11.6295 12.1917 12.6942 11.127 14.0026 11.127C15.3109 11.127 16.3756 12.1917 16.3756 13.5C16.3756 14.8083 15.3109 15.873 14.0026 15.873Z" fill="#FF6363"/>
</g>
<defs>
<clipPath id="clip0_12471_7582">
<rect width="27" height="27" fill="white" transform="translate(0.5)"/>
</clipPath>
</defs>
</svg>
