<svg width="28" height="27" viewBox="0 0 28 27" fill="none" xmlns="http://www.w3.org/2000/svg">
<g clip-path="url(#clip0_12471_7616)">
<path d="M1.29102 27H15.6348C16.0717 27 16.4258 26.6459 16.4258 26.209V25.3652C16.4258 24.4914 15.7176 23.7832 14.8437 23.7832V22.8375C14.8437 21.5853 13.8249 20.5664 12.5727 20.5664H4.35311C3.10088 20.5664 2.08203 21.5853 2.08203 22.8375V23.7832C1.20821 23.7832 0.5 24.4914 0.5 25.3652V26.209C0.5 26.6457 0.854309 27 1.29102 27Z" fill="#FF6363"/>
<path d="M10.3995 17.4205C10.9252 18.1182 11.9173 18.2577 12.615 17.7318C13.3129 17.2061 13.4521 16.214 12.9264 15.5161L8.16593 9.19891C7.64002 8.50101 6.64817 8.36175 5.95047 8.88745C5.25256 9.41335 5.1131 10.4052 5.639 11.1031L10.3995 17.4205Z" fill="#FF6363"/>
<path d="M21.7743 8.85156C22.3002 9.54926 23.2921 9.68872 23.99 9.16282C24.6877 8.63712 24.8271 7.64527 24.3012 6.94736L19.5407 0.630153C19.015 -0.0677537 18.023 -0.207211 17.3253 0.31869C16.6276 0.844592 16.4881 1.83645 17.014 2.53436L21.7743 8.85156Z" fill="#FF6363"/>
<path d="M18.2997 13.4474C19.4689 12.5664 20.3467 11.4723 20.8956 10.3204L15.3565 2.96973C14.0979 3.18005 12.8044 3.72202 11.635 4.60326C10.4658 5.48429 9.58804 6.57832 9.03906 7.73003L14.5782 15.0811C15.8369 14.8708 17.1303 14.3286 18.2997 13.4474Z" fill="#FF6363"/>
<path d="M20.4408 13.6533C20.0725 14.0286 19.6846 14.3885 19.2569 14.7109C18.8291 15.0331 18.3761 15.3068 17.9141 15.5575L18.9455 16.9264L21.4724 15.0224L20.4408 13.6533Z" fill="#FF6363"/>
<path d="M22.4175 16.2856L19.8906 18.1896L24.6511 24.5071C25.177 25.205 26.1689 25.3442 26.8666 24.8185C27.5645 24.2926 27.7038 23.3008 27.1781 22.6029L22.4175 16.2856Z" fill="#FF6363"/>
</g>
<defs>
<clipPath id="clip0_12471_7616">
<rect width="27" height="27" fill="white" transform="translate(0.5)"/>
</clipPath>
</defs>
</svg>
