<svg width="45" height="37" viewBox="0 0 45 37" fill="none" xmlns="http://www.w3.org/2000/svg">
<path d="M33.8153 15.0582C32.3013 16.5596 29.4489 17.3206 27.3094 17.3206V15.4418C28.9509 15.4418 31.3137 14.8819 32.4755 13.7298C33.637 12.5777 34.2018 11.2265 34.2018 9.59846C34.2018 7.97087 33.637 6.61944 32.4755 5.46736C31.3137 4.31552 29.9509 3.75563 28.3094 3.75563C26.6676 3.75563 25.3051 4.31552 24.1436 5.46736L22.8037 4.13892C24.3175 2.63779 26.1696 1.87683 28.3094 1.87683C30.4487 1.87683 32.3011 2.63779 33.8151 4.13867C35.3291 5.64029 36.0964 7.47726 36.0964 9.59846C36.0964 11.7204 35.3288 13.5571 33.8153 15.0582Z" fill="#E56033"/>
<path d="M41.6727 24.5666C41.8027 25.2863 41.891 25.9677 41.9346 26.5924C41.9778 27.203 41.9998 27.8402 42 28.4862C42 30.1602 41.4635 31.5156 40.4054 32.514C39.3603 33.5 37.978 34 36.297 34H31.3711C31.5 33.5 32 33 31.8594 32.1212H36.2968C37.4921 32.1212 38.4087 31.8044 39.0991 31.1528C39.7761 30.5139 40.1052 29.6417 40.1054 28.4864C40.1052 27.8839 40.0849 27.2905 40.0447 26.7233C40.0058 26.1656 39.9259 25.5517 39.808 24.8983C39.6915 24.2548 39.5428 23.6506 39.3659 23.1027C39.1967 22.5785 38.9654 22.0587 38.6785 21.5585C38.405 21.081 38.0902 20.6718 37.7429 20.3423C37.4181 20.0341 37.0086 19.7815 36.5264 19.5921C36.0799 19.417 35.5785 19.3211 35.0339 19.3067C34.9675 19.3417 34.8494 19.4087 34.658 19.5322C34.2685 19.7842 33.8321 20.063 33.3243 20.3849C32.7641 20.7391 32.0436 21.0583 31.1818 21.3345L28.5125 19.881C29.2056 19.881 29.9076 19.7685 30.5989 19.5466C31.3076 19.3197 31.8813 19.0689 32.3048 18.8013C32.8001 18.4875 33.2439 18.2038 33.6232 17.9584C34.2396 17.5605 34.5588 17.4262 34.8888 17.4262C35.7292 17.4262 36.5148 17.5671 37.2237 17.8452C37.9351 18.1248 38.5502 18.5081 39.0527 18.9848C39.5332 19.4405 39.9614 19.9943 40.3257 20.6302C40.6772 21.243 40.9611 21.8824 41.1703 22.5298C41.3725 23.1563 41.5415 23.8416 41.6727 24.5666Z" fill="#E56033"/>
<path d="M31.3479 29.1443C31.3016 28.4818 31.208 27.7591 31.0701 26.996C30.931 26.2271 30.7518 25.5003 30.5373 24.8359C30.3155 24.1493 30.0144 23.4712 29.6416 22.8215C29.2553 22.147 28.8012 21.5597 28.2916 21.0765C27.7588 20.5709 27.1064 20.1644 26.352 19.8679C25.6002 19.573 24.7671 19.4236 23.8759 19.4236C23.5259 19.4236 23.1874 19.566 22.5337 19.988C22.1314 20.2482 21.6609 20.5491 21.1356 20.8819C20.6865 21.1657 20.078 21.4316 19.3265 21.6723C18.5933 21.9076 17.8489 22.0269 17.1138 22.0269C16.3793 22.0269 15.6349 21.9076 14.9011 21.6723C14.1504 21.4319 13.5417 21.166 13.0933 20.8822C12.5731 20.5525 12.1022 20.2516 11.6939 19.9878C11.0407 19.5657 10.7023 19.4233 10.3523 19.4233C9.4608 19.4233 8.62793 19.573 7.87641 19.8682C7.12254 20.1642 6.4699 20.5706 5.93654 21.0767C5.42698 21.5603 4.97288 22.1473 4.58679 22.8215C4.21456 23.4712 3.91323 24.1491 3.69141 24.8362C3.47717 25.5005 3.29799 26.2271 3.15883 26.996C3.02072 27.7581 2.92733 28.481 2.88103 29.1451C2.83552 29.7944 2.8125 30.4701 2.8125 31.1528C2.8125 32.9276 3.38143 34.3644 4.50335 35.4241C5.6114 36.4697 7.07729 36.9999 8.86047 36.9999H25.3693C27.1519 36.9999 28.6178 36.4697 29.7261 35.4241C30.8483 34.3652 31.4172 32.9279 31.4172 31.1526C31.417 30.4675 31.3937 29.7918 31.3479 29.1443V29.1443ZM28.3408 33.9805C27.6086 34.6716 26.6366 35.0075 25.369 35.0075H8.86047C7.5926 35.0075 6.62057 34.6716 5.88867 33.9808C5.17064 33.303 4.82169 32.3777 4.82169 31.1528C4.82169 30.5157 4.84288 29.8867 4.88525 29.2828C4.92658 28.6904 5.01107 28.0395 5.13637 27.348C5.2601 26.665 5.41757 26.024 5.60486 25.4437C5.78456 24.8873 6.02966 24.3363 6.33362 23.8056C6.62371 23.2998 6.95748 22.8658 7.32579 22.5161C7.67029 22.189 8.10451 21.9213 8.61616 21.7206C9.08936 21.5348 9.62115 21.4331 10.1985 21.4178C10.2688 21.4549 10.3941 21.5258 10.5971 21.657C11.0101 21.9239 11.4862 22.2285 12.0125 22.5618C12.6058 22.9369 13.3701 23.2757 14.2833 23.568C15.2168 23.8673 16.169 24.0194 17.1141 24.0194C18.0592 24.0194 19.0116 23.8673 19.9446 23.5683C20.8586 23.2754 21.6227 22.9369 22.2167 22.5613C22.7553 22.2199 23.218 21.9242 23.6311 21.657C23.8341 21.526 23.9593 21.4549 24.0297 21.4178C24.6073 21.4331 25.1391 21.5348 25.6125 21.7206C26.1239 21.9213 26.5581 22.1893 26.9026 22.5161C27.2709 22.8655 27.6047 23.2995 27.8948 23.8059C28.199 24.3363 28.4444 24.8876 28.6238 25.4435C28.8114 26.0245 28.9691 26.6652 29.0926 27.3477C29.2176 28.0406 29.3024 28.6916 29.3437 29.2831V29.2836C29.3863 29.8851 29.4078 30.5139 29.408 31.1528C29.4078 32.378 29.0588 33.303 28.3408 33.9805V33.9805Z" fill="#E56033"/>
<path d="M16.8984 19.3779C19.1674 19.3779 21.1318 18.5709 22.7374 16.9787C24.3425 15.3868 25.1565 13.439 25.1565 11.1887C25.1565 8.9392 24.3427 6.99111 22.7371 5.39866C21.1316 3.80699 19.1671 3 16.8984 3C14.6292 3 12.665 3.80699 11.0597 5.39892C9.45442 6.99085 8.64038 8.93894 8.64038 11.1887C8.64038 13.439 9.45442 15.3871 11.0597 16.979C12.6656 18.5707 14.63 19.3779 16.8984 19.3779V19.3779ZM12.4806 6.80772C13.7124 5.58621 15.1574 4.99244 16.8984 4.99244C18.6392 4.99244 20.0845 5.58621 21.3165 6.80772C22.5483 8.02949 23.1473 9.46266 23.1473 11.1887C23.1473 12.9153 22.5483 14.3482 21.3165 15.57C20.0845 16.7917 18.6392 17.3855 16.8984 17.3855C15.1579 17.3855 13.7129 16.7915 12.4806 15.57C11.2486 14.3484 10.6496 12.9153 10.6496 11.1887C10.6496 9.46266 11.2486 8.02949 12.4806 6.80772Z" fill="#E56033"/>
</svg>
