<svg width="37" height="37" viewBox="0 0 37 37" fill="none" xmlns="http://www.w3.org/2000/svg">
<g clip-path="url(#clip0_110_62)">
<path d="M5.86512 27.971C6.68687 27.971 7.35303 27.3048 7.35303 26.483C7.35303 25.6613 6.68687 24.9951 5.86512 24.9951C5.04336 24.9951 4.3772 25.6613 4.3772 26.483C4.3772 27.3048 5.04336 27.971 5.86512 27.971Z" fill="#E56033"/>
<path d="M31.1349 0.0421371C28.7631 0.0421371 26.7171 1.45815 25.7939 3.48842C23.7909 2.72061 21.1005 2.02661 18.9373 2.02661C14.4332 2.02661 10.1985 3.78066 7.01362 6.96549C4.31467 9.66445 2.6438 13.1172 2.19654 16.849C2.19369 16.871 2.19069 16.8931 2.18923 16.9154C2.11388 17.5658 2.07467 18.2244 2.07467 18.8892C2.07467 19.7063 2.19091 20.8715 2.32646 21.8103C0.914184 22.8823 0 24.5781 0 26.4838C0 27.4779 0.253912 28.4585 0.735181 29.326C0.746154 29.3494 0.758077 29.3726 0.770952 29.3953L4.7132 36.405C4.90121 36.7391 5.25153 36.9492 5.63485 36.9576C5.64275 36.9579 5.65058 36.9579 5.65848 36.9579C6.03287 36.9579 6.38152 36.7646 6.57961 36.4457L9.02158 32.5139C11.9318 34.5825 15.4814 35.7519 18.9372 35.7519C23.4414 35.7519 27.6759 33.9978 30.8608 30.8129C34.0457 27.628 35.7998 23.3935 35.7998 18.8893C35.7998 16.4568 35.0378 13.736 34.303 11.9186L36.0419 9.11895C36.1049 9.01793 36.1302 8.97777 36.1435 8.95662C36.1637 8.9248 36.1637 8.92488 36.1902 8.88055L36.2059 8.8545C36.2178 8.83483 36.2289 8.81478 36.2395 8.79452C36.7372 7.91611 37 6.91889 37 5.90734C37.0001 2.67321 34.369 0.0421371 31.1349 0.0421371ZM18.9372 4.19558C19.4412 4.19558 19.9919 4.24305 20.5633 4.32594C20.4346 6.74728 18.8833 8.89752 16.364 10.0627C16.0887 10.19 15.7961 10.3053 15.4864 10.4273C14.5654 10.7902 13.5215 11.2015 12.7306 12.0591C12.2905 12.5364 11.9979 13.082 11.7397 13.5635C11.5458 13.9251 11.3627 14.2666 11.145 14.5324C10.7149 15.0578 10.0103 15.4415 9.16101 15.6128C8.13483 15.8198 7.29263 15.8405 6.58598 15.6758C5.7764 15.4872 5.1508 15.4415 4.64451 15.4762C6.18752 9.01471 12.0098 4.19558 18.9372 4.19558ZM5.70471 33.7434L2.7013 28.403C2.68857 28.3759 2.67459 28.3492 2.6596 28.323C2.33861 27.765 2.16889 27.129 2.16889 26.4838C2.16889 24.4457 3.82704 22.7876 5.86513 22.7876C7.90323 22.7876 9.56137 24.4457 9.56137 26.4838C9.56137 27.1315 9.39056 27.7694 9.0673 28.329C9.06335 28.3358 9.05947 28.3426 9.05567 28.3497C9.04865 28.3612 9.04704 28.3638 9.03914 28.3765C9.02509 28.3988 8.99832 28.4413 8.93087 28.5494L5.70471 33.7434ZM18.9372 33.5829C17.4942 33.5829 16.0312 33.3474 14.6183 32.9034C15.7046 31.7687 16.5648 30.2833 16.8353 28.9501C17.1743 27.2797 17.0898 25.6085 17.0079 23.9924L16.9909 23.6528C16.9388 22.5965 16.9171 21.6551 17.1813 20.8322C17.4298 20.058 17.9655 19.4682 18.5462 19.3296C19.2094 19.1715 20.0116 19.518 20.861 19.8849C21.083 19.9808 21.3126 20.08 21.5443 20.172C24.3841 21.2995 27.4414 21.1717 30.0841 20.9636C30.2174 20.9531 30.3509 20.9423 30.4845 20.9315C31.5307 20.8467 32.5338 20.7658 33.504 20.8203C32.5556 28.013 26.3849 33.5829 18.9372 33.5829ZM33.6278 18.6555C32.5035 18.5925 31.3929 18.6817 30.3093 18.7695C30.1773 18.7801 30.0454 18.7909 29.9137 18.8012C27.5139 18.9903 24.7523 19.1119 22.3445 18.156C22.1431 18.076 21.9382 17.9874 21.7213 17.8936C20.6368 17.4252 19.4077 16.8941 18.0428 17.2198C16.7201 17.5353 15.5986 18.6655 15.1161 20.1693C14.7411 21.3378 14.7642 22.5343 14.8245 23.7594L14.8417 24.1019C14.9201 25.652 14.9943 27.1162 14.7097 28.5186C14.4729 29.6854 13.4617 31.1737 12.3866 32.0065C11.613 31.6237 10.8689 31.176 10.1681 30.6678L10.772 29.6955C10.8349 29.5946 10.8603 29.5544 10.8736 29.5333C10.8937 29.5014 10.8938 29.5014 10.92 29.4576L10.9359 29.4312C10.9478 29.4114 10.9591 29.3913 10.9697 29.371C11.4674 28.4925 11.7302 27.4953 11.7302 26.4837C11.7302 23.2497 9.09905 20.6186 5.86506 20.6186C5.35329 20.6186 4.8568 20.6848 4.38321 20.8085C4.30245 20.12 4.24349 19.3981 4.24349 18.889C4.24349 18.5053 4.25842 18.125 4.28746 17.7487C4.61401 17.6255 5.07267 17.5502 6.09395 17.7882C7.10923 18.0247 8.25275 18.0085 9.58983 17.7389C10.9287 17.4688 12.0769 16.818 12.8232 15.9062C13.1744 15.4772 13.4277 15.005 13.6512 14.5883C13.8674 14.185 14.0717 13.804 14.3251 13.5293C14.779 13.0371 15.5088 12.7496 16.2815 12.4451C16.6064 12.3171 16.9422 12.1847 17.2744 12.0311C18.9913 11.2371 20.4096 10.0345 21.376 8.55326C22.131 7.39599 22.58 6.10866 22.7049 4.77012C23.6191 5.01108 24.5086 5.30647 25.2771 5.61459C25.2724 5.71151 25.2697 5.80903 25.2697 5.90712C25.2697 6.90119 25.5236 7.8818 26.0048 8.74924C26.0159 8.77265 26.0277 8.79576 26.0406 8.81851L29.9829 15.8282C30.1709 16.1623 30.5212 16.3724 30.9045 16.3809C30.9124 16.3811 30.9202 16.3811 30.9281 16.3811C31.3025 16.3811 31.6512 16.1878 31.8493 15.8689L32.8383 14.2765C33.2668 15.6692 33.5943 17.2542 33.6278 18.6555ZM34.3371 7.75224C34.3332 7.75919 34.3291 7.76614 34.3253 7.77324C34.3185 7.78458 34.3168 7.78721 34.309 7.79965C34.295 7.82189 34.2683 7.86446 34.2006 7.9728L32.1743 11.2351C32.1681 11.2446 32.1622 11.2542 32.1564 11.2638L30.9745 13.1668L27.971 7.82635C27.9583 7.79921 27.9444 7.77251 27.9293 7.74632C27.6084 7.18831 27.4387 6.55247 27.4387 5.90727C27.4387 3.86917 29.0968 2.21103 31.1349 2.21103C33.173 2.21103 34.8312 3.86917 34.8312 5.90727C34.8312 6.55489 34.6603 7.19285 34.3371 7.75224Z" fill="#E56033"/>
<path d="M31.1349 7.39431C31.9566 7.39431 32.6228 6.72814 32.6228 5.90639C32.6228 5.08464 31.9566 4.41847 31.1349 4.41847C30.3131 4.41847 29.647 5.08464 29.647 5.90639C29.647 6.72814 30.3131 7.39431 31.1349 7.39431Z" fill="#E56033"/>
</g>
<defs>
<clipPath id="clip0_110_62">
<rect width="37" height="37" fill="white"/>
</clipPath>
</defs>
</svg>
